<svg xmlns="http://www.w3.org/2000/svg" width="788" height="317" viewBox="0 0 788 317">
<g>
<path d="M 110.10,111.16 L 111.44,111.17 L 113.72,111.20 L 114.79,111.22 L 116.56,111.29 L 117.39,111.33 L 118.71,111.43 L 119.32,111.49 L 120.24,111.64 L 120.65,111.71 L 121.21,111.90 L 121.71,112.23 L 121.82,112.37 L 122.10,112.84 L 122.25,113.11 L 122.64,113.91 L 122.85,114.36 L 123.38,115.56 L 123.66,116.22 L 124.37,117.90 L 124.75,118.81 L 125.66,121.05 L 126.14,122.25 L 127.29,125.13 L 127.90,126.65 L 129.32,130.24 L 131.78,136.50 L 132.21,137.60 L 133.39,140.50 L 135.05,144.50 L 135.28,145.05 L 135.92,146.61 L 136.26,147.44 L 137.04,149.38 L 139.46,155.50 L 139.65,155.98 L 140.13,157.20 L 140.38,157.85 L 140.98,159.36 L 141.60,160.94 L 143.09,164.70 L 148.01,177.00 L 148.81,178.99 L 150.43,183.05 L 151.24,185.05 L 152.73,188.79 L 153.45,190.58 L 154.65,193.58 L 154.92,194.27 L 155.38,195.42 L 155.91,196.78 L 157.99,202.06 L 144.41,201.78 L 130.84,201.50 L 116.92,167.00 L 115.97,164.63 L 114.13,160.05 L 113.22,157.79 L 111.52,153.52 L 110.69,151.42 L 109.16,147.55 L 108.41,145.68 L 107.09,142.30 L 106.46,140.69 L 105.39,137.91 L 104.89,136.61 L 104.10,134.53 L 103.75,133.59 L 103.29,132.30 L 103.00,131.37 L 103.00,131.06 L 102.60,130.24 L 101.63,129.11 L 101.47,128.97 L 100.91,129.41 L 100.75,129.59 L 100.37,130.14 L 100.16,130.46 L 99.67,131.31 L 99.42,131.77 L 98.82,132.94 L 98.51,133.57 L 97.80,135.08 L 97.43,135.88 L 96.59,137.75 L 96.16,138.73 L 95.18,140.98 L 94.68,142.16 L 93.56,144.81 L 92.98,146.20 L 91.70,149.28 L 91.04,150.88 L 89.60,154.42 L 88.86,156.24 L 87.25,160.25 L 86.42,162.32 L 84.62,166.82 L 83.69,169.13 L 81.70,174.15 L 80.68,176.73 L 78.48,182.28 L 74.95,191.25 L 70.72,202.00 L 55.52,202.00 L 52.17,201.93 L 50.58,201.89 L 47.93,201.74 L 47.32,201.70 L 46.29,201.61 L 45.81,201.57 L 45.05,201.46 L 44.72,201.41 L 44.27,201.30 L 44.09,201.24 L 44.00,201.12 L 44.00,201.07 L 44.11,200.71 L 44.18,200.49 L 44.41,199.83 L 44.54,199.46 L 44.88,198.52 L 45.07,198.02 L 45.51,196.85 L 45.97,195.63 L 47.13,192.65 L 47.73,191.10 L 49.07,187.69 L 50.44,184.23 L 53.22,177.34 L 53.88,175.72 L 55.06,172.88 L 56.50,169.50 L 56.59,169.29 L 56.99,168.34 L 57.22,167.77 L 57.88,166.17 L 58.24,165.29 L 59.12,163.11 L 59.59,161.96 L 60.66,159.30 L 61.22,157.92 L 62.46,154.86 L 63.09,153.29 L 64.45,149.91 L 68.83,139.00 L 79.84,111.50 L 100.28,111.23 L 102.23,111.20 L 105.65,111.17 L 107.28,111.16 M 716.03,147.06 L 718.02,152.02 L 721.93,161.82 L 722.89,164.22 L 724.73,168.83 L 725.63,171.09 L 727.31,175.33 L 728.13,177.39 L 729.62,181.15 L 730.34,182.95 L 731.58,186.09 L 732.16,187.57 L 733.10,189.97 L 734.13,192.61 L 737.75,202.05 L 724.16,201.78 L 710.56,201.50 L 695.90,165.00 L 694.90,162.49 L 692.94,157.67 L 691.98,155.30 L 690.15,150.83 L 689.25,148.65 L 687.59,144.63 L 686.78,142.69 L 685.32,139.22 L 684.62,137.57 L 683.40,134.76 L 682.83,133.44 L 681.91,131.38 L 681.49,130.45 L 680.90,129.24 L 680.78,129.00 L 680.60,128.69 L 680.44,128.50 L 680.33,128.50 L 680.00,128.86 L 679.82,129.08 L 679.38,129.82 L 677.98,133.00 L 677.66,133.87 L 677.12,135.35 L 676.86,136.05 L 676.40,137.28 L 675.96,138.45 L 675.22,140.38 L 674.86,141.33 L 674.07,143.30 L 672.54,147.00 L 672.39,147.38 L 671.89,148.61 L 671.61,149.30 L 670.88,151.09 L 670.50,152.05 L 669.59,154.31 L 669.11,155.50 L 668.04,158.15 L 667.49,159.53 L 666.30,162.49 L 665.70,164.01 L 664.42,167.21 L 660.41,177.25 L 650.55,202.00 L 635.45,202.00 L 632.12,201.94 L 630.53,201.90 L 627.90,201.78 L 627.29,201.75 L 626.27,201.67 L 625.79,201.63 L 625.04,201.54 L 624.70,201.50 L 624.26,201.40 L 624.08,201.35 L 623.99,201.25 L 623.98,201.15 L 624.27,200.25 L 624.45,199.70 L 625.04,198.08 L 625.37,197.19 L 626.19,195.05 L 627.60,191.50 L 628.60,189.02 L 630.73,183.67 L 631.24,182.41 L 632.13,180.15 L 633.17,177.50 L 633.70,176.14 L 634.51,174.06 L 634.89,173.08 L 635.62,171.25 L 636.00,170.31 L 636.92,168.07 L 637.18,167.45 L 637.77,166.02 L 638.81,163.50 L 638.95,163.16 L 639.41,162.02 L 639.67,161.38 L 640.35,159.70 L 640.71,158.81 L 641.57,156.68 L 642.02,155.57 L 643.03,153.07 L 643.55,151.77 L 644.67,148.97 L 645.25,147.54 L 646.46,144.52 L 650.27,135.00 L 659.66,111.50 L 680.61,111.23 L 701.55,110.96 M 612.00,202.05 L 594.75,201.77 L 577.50,201.50 L 558.00,172.25 L 556.66,170.24 L 554.07,166.38 L 552.79,164.48 L 550.37,160.90 L 549.18,159.15 L 546.99,155.93 L 545.92,154.37 L 544.01,151.60 L 543.09,150.27 L 541.51,148.02 L 540.77,146.96 L 539.58,145.31 L 539.04,144.57 L 538.30,143.60 L 537.75,143.00 L 537.70,143.00 L 537.60,143.60 L 537.55,144.00 L 537.46,145.33 L 537.41,146.08 L 537.33,148.06 L 537.29,149.12 L 537.22,151.67 L 537.19,153.00 L 537.13,156.04 L 537.10,157.61 L 537.06,161.05 L 537.04,162.81 L 537.02,166.57 L 537.00,172.50 L 537.00,202.00 L 512.00,202.00 L 512.00,110.95 L 529.24,111.23 L 546.47,111.50 L 565.99,140.58 L 585.50,169.66 L 586.00,140.58 L 586.50,111.50 L 612.00,110.94 M 195.00,147.89 L 195.07,156.22 L 195.10,158.22 L 195.16,161.96 L 195.19,163.77 L 195.27,167.06 L 195.31,168.64 L 195.41,171.39 L 195.46,172.69 L 195.57,174.80 L 195.62,175.77 L 195.74,177.16 L 195.93,178.31 L 196.13,178.85 L 196.68,179.75 L 197.00,180.17 L 197.97,180.85 L 198.52,181.18 L 200.13,181.68 L 201.04,181.91 L 203.54,182.27 L 204.23,182.34 L 205.81,182.48 L 206.64,182.54 L 208.53,182.65 L 209.52,182.70 L 211.74,182.78 L 212.90,182.81 L 215.48,182.87 L 216.82,182.90 L 219.80,182.94 L 221.34,182.95 L 224.73,182.97 L 226.49,182.98 L 230.34,182.99 L 236.65,183.00 L 270.00,183.00 L 270.00,202.00 L 232.25,201.91 L 228.89,201.90 L 222.85,201.87 L 219.94,201.85 L 214.77,201.80 L 212.28,201.77 L 207.92,201.69 L 205.84,201.65 L 202.25,201.55 L 200.55,201.50 L 197.69,201.37 L 196.35,201.30 L 194.17,201.15 L 193.17,201.07 L 191.63,200.88 L 190.94,200.79 L 190.00,200.57 L 187.77,199.95 L 184.07,198.49 L 182.32,197.71 L 179.42,195.81 L 178.06,194.79 L 175.76,192.30 L 172.75,187.71 L 172.20,186.68 L 171.47,184.63 L 171.31,184.02 L 171.06,182.44 L 170.94,181.56 L 170.76,179.21 L 170.72,178.57 L 170.65,177.08 L 170.62,176.30 L 170.56,174.52 L 170.53,173.59 L 170.48,171.49 L 170.46,170.39 L 170.41,167.93 L 170.39,166.64 L 170.36,163.78 L 170.34,162.29 L 170.31,158.98 L 170.29,157.27 L 170.26,153.49 L 170.20,147.25 L 169.91,111.00 L 195.00,111.00 M 446.90,111.00 L 448.03,111.00 L 450.08,111.01 L 452.06,111.01 L 455.22,111.04 L 456.69,111.06 L 458.95,111.12 L 459.98,111.16 L 461.50,111.29 L 462.18,111.36 L 463.13,111.56 L 463.54,111.67 L 464.08,111.96 L 464.94,113.25 L 464.97,113.33 L 465.12,113.69 L 465.21,113.91 L 465.46,114.55 L 465.60,114.90 L 465.96,115.79 L 466.15,116.27 L 466.61,117.40 L 467.08,118.59 L 468.30,121.62 L 468.95,123.23 L 470.47,127.03 L 471.27,129.01 L 473.06,133.45 L 473.98,135.74 L 475.97,140.71 L 476.99,143.25 L 479.15,148.62 L 482.52,157.00 L 483.67,159.85 L 485.88,165.37 L 486.97,168.09 L 489.04,173.25 L 490.05,175.78 L 491.92,180.46 L 492.82,182.73 L 494.45,186.82 L 495.23,188.78 L 496.57,192.16 L 497.20,193.75 L 498.20,196.30 L 498.43,196.88 L 498.81,197.86 L 498.99,198.32 L 499.27,199.05 L 499.40,199.39 L 499.58,199.86 L 499.72,200.25 L 499.83,200.65 L 499.63,201.20 L 499.52,201.32 L 499.09,201.51 L 498.83,201.60 L 498.06,201.73 L 497.62,201.79 L 496.43,201.87 L 495.78,201.91 L 494.09,201.95 L 493.18,201.97 L 490.92,201.99 L 486.82,202.00 L 473.40,202.00 L 458.50,165.00 L 457.68,162.98 L 456.16,159.21 L 455.42,157.38 L 454.05,153.99 L 453.37,152.34 L 452.13,149.31 L 451.53,147.84 L 450.42,145.15 L 449.88,143.85 L 448.89,141.50 L 448.41,140.36 L 447.55,138.33 L 447.13,137.35 L 446.37,135.63 L 446.01,134.80 L 445.36,133.37 L 445.05,132.69 L 444.50,131.54 L 444.23,130.99 L 443.78,130.11 L 443.35,129.29 L 442.74,128.39 L 442.48,128.06 L 442.17,128.06 L 442.00,128.96 L 442.00,129.02 L 441.74,129.77 L 441.57,130.24 L 441.01,131.75 L 440.69,132.58 L 439.86,134.74 L 439.41,135.89 L 438.35,138.60 L 437.80,140.02 L 436.55,143.18 L 435.91,144.81 L 434.52,148.32 L 433.10,151.90 L 430.00,159.68 L 428.43,163.61 L 425.27,171.47 L 424.49,173.40 L 422.98,177.14 L 422.24,178.99 L 420.82,182.47 L 420.13,184.17 L 418.86,187.30 L 418.24,188.80 L 417.14,191.47 L 416.62,192.73 L 415.74,194.84 L 414.71,197.25 L 412.64,202.00 L 397.92,202.00 L 395.68,201.99 L 394.61,201.98 L 392.78,201.94 L 391.92,201.92 L 390.48,201.86 L 389.81,201.82 L 388.73,201.74 L 388.23,201.69 L 387.48,201.57 L 387.14,201.50 L 386.68,201.35 L 386.29,201.19 L 386.27,200.75 L 386.30,200.65 L 386.47,200.24 L 386.57,199.99 L 386.85,199.29 L 387.00,198.91 L 387.38,197.95 L 387.59,197.44 L 388.07,196.23 L 388.58,194.97 L 389.85,191.79 L 390.53,190.11 L 392.10,186.20 L 392.91,184.18 L 394.71,179.70 L 395.64,177.41 L 397.60,172.52 L 399.60,167.55 L 403.85,157.02 L 405.97,151.75 L 410.08,141.55 L 411.08,139.07 L 412.97,134.40 L 413.89,132.12 L 415.57,127.95 L 416.38,125.94 L 417.80,122.43 L 418.47,120.77 L 419.56,118.07 L 419.81,117.45 L 420.24,116.39 L 420.44,115.90 L 420.77,115.10 L 420.92,114.73 L 421.13,114.21 L 421.32,113.75 L 422.49,111.00 L 444.55,111.00 Z" fill="rgba(0,0,0,1)"/>
<path d="M 283.72,201.39 L 283.67,201.34 L 283.58,200.69 L 283.53,200.29 L 283.44,198.99 L 283.40,198.26 L 283.32,196.38 L 283.28,195.37 L 283.21,192.99 L 283.18,191.74 L 283.12,188.92 L 283.10,187.46 L 283.06,184.29 L 283.00,173.80 L 283.00,146.94 L 294.75,147.22 L 306.50,147.50 L 306.78,162.73 L 306.81,164.40 L 306.87,167.24 L 306.90,168.57 L 306.98,170.79 L 307.02,171.83 L 307.12,173.51 L 307.17,174.30 L 307.31,175.53 L 307.38,176.09 L 307.56,176.95 L 307.65,177.34 L 307.88,177.91 L 308.83,178.91 L 309.00,179.00 L 309.75,179.15 L 310.19,179.23 L 311.42,179.35 L 312.08,179.41 L 313.72,179.49 L 314.58,179.53 L 316.56,179.59 L 318.60,179.64 L 323.38,179.65 L 325.84,179.64 L 331.03,179.55 L 333.62,179.49 L 338.64,179.30 L 341.08,179.20 L 345.35,178.94 L 346.35,178.87 L 348.10,178.71 L 348.93,178.63 L 350.29,178.47 L 350.92,178.38 L 351.83,178.20 L 352.61,177.91 L 353.49,177.18 L 354.81,175.40 L 355.11,174.91 L 355.61,173.79 L 355.85,173.20 L 356.23,171.84 L 356.41,171.13 L 356.70,169.48 L 356.83,168.61 L 357.02,166.63 L 357.11,165.58 L 357.23,163.20 L 357.33,159.14 L 357.36,157.47 L 357.36,154.54 L 357.35,153.14 L 357.28,150.68 L 357.24,149.50 L 357.09,147.45 L 357.01,146.47 L 356.77,144.76 L 356.64,143.95 L 356.31,142.53 L 356.13,141.85 L 355.69,140.65 L 353.90,137.60 L 351.85,135.00 L 319.01,135.00 L 316.75,135.00 L 312.38,134.99 L 310.22,134.98 L 306.13,134.95 L 304.13,134.94 L 300.41,134.90 L 298.60,134.87 L 295.35,134.82 L 293.79,134.79 L 291.09,134.73 L 289.83,134.70 L 287.79,134.63 L 286.86,134.59 L 285.57,134.51 L 284.58,134.39 L 284.25,134.27 L 283.78,133.65 L 283.57,133.25 L 283.30,131.82 L 283.24,131.40 L 283.16,130.34 L 283.12,129.78 L 283.06,128.40 L 283.04,127.66 L 283.01,125.92 L 283.00,122.84 L 283.00,111.89 L 321.25,112.23 L 323.63,112.25 L 327.94,112.29 L 330.03,112.31 L 333.81,112.35 L 335.64,112.37 L 338.92,112.41 L 340.51,112.43 L 343.33,112.47 L 344.69,112.49 L 347.10,112.54 L 348.26,112.56 L 350.30,112.62 L 351.27,112.65 L 352.98,112.72 L 353.79,112.75 L 355.20,112.83 L 356.54,112.92 L 358.53,113.14 L 359.43,113.26 L 360.78,113.58 L 364.00,114.95 L 365.10,115.53 L 367.11,116.76 L 368.08,117.40 L 369.83,118.76 L 370.68,119.46 L 372.22,120.98 L 372.96,121.76 L 374.29,123.47 L 374.93,124.35 L 376.08,126.27 L 376.64,127.26 L 377.63,129.43 L 378.11,130.55 L 378.96,132.99 L 380.11,137.00 L 380.21,137.39 L 380.39,138.42 L 380.48,138.97 L 380.64,140.30 L 380.80,141.69 L 381.05,145.16 L 381.16,146.98 L 381.33,151.03 L 381.40,153.09 L 381.47,157.33 L 381.49,159.44 L 381.47,163.50 L 381.45,165.47 L 381.33,168.96 L 381.29,169.78 L 381.20,171.25 L 381.15,171.95 L 381.03,173.15 L 380.97,173.71 L 380.82,174.59 L 380.57,175.50 L 380.33,176.05 L 379.83,177.62 L 379.29,179.89 L 379.14,180.79 L 378.58,182.62 L 378.25,183.55 L 377.37,185.41 L 376.89,186.34 L 375.72,188.18 L 375.11,189.09 L 373.70,190.86 L 372.23,192.61 L 368.75,195.70 L 367.85,196.42 L 365.95,197.70 L 363.00,199.35 L 361.92,199.86 L 359.69,200.56 L 359.02,200.71 L 357.33,200.95 L 356.39,201.07 L 353.94,201.24 L 353.26,201.28 L 351.72,201.35 L 350.91,201.38 L 349.08,201.44 L 348.13,201.47 L 345.97,201.52 L 344.85,201.55 L 342.34,201.59 L 341.03,201.61 L 338.12,201.65 L 336.62,201.66 L 333.28,201.70 L 331.55,201.72 L 327.74,201.75 L 321.47,201.80 L 318.93,201.83 L 314.02,201.85 L 311.60,201.86 L 307.04,201.87 L 304.81,201.87 L 300.68,201.85 L 298.69,201.84 L 295.11,201.81 L 293.40,201.79 L 290.47,201.74 L 289.10,201.71 L 286.92,201.64 L 285.94,201.61 L 284.62,201.53 L 284.08,201.48 Z" fill="rgba(134,73,182,1)"/>
</g>
</svg>